<?xml version="1.0" encoding="utf-8"?>
<!-- Generator: Adobe Illustrator 24.1.2, SVG Export Plug-In . SVG Version: 6.00 Build 0)  -->
<svg version="1.1" id="Layer_1" xmlns="http://www.w3.org/2000/svg" xmlns:xlink="http://www.w3.org/1999/xlink" x="0px" y="0px"
	 viewBox="0 0 149.2 172.2" style="enable-background:new 0 0 149.2 172.2;" xml:space="preserve">
<style type="text/css">
	.st0{display:none;fill:#666766;}
	.st1{display:none;fill:#FFFFFF;}
	.st2{display:none;}
	.st3{display:inline;}
	.st4{fill:#606060;}
	.st5{fill:#FFFFFF;}
	.st6{fill:none;}
</style>
<polygon class="st0" points="149.2,129.2 74.6,172.2 0,129.2 0,43.1 74.6,0 149.2,43.1 "/>
<path class="st1" d="M41.9,84.8L67,111.5L54.9,84.8H41.9z M74.6,115.8l14.1-31.1H60.5L74.6,115.8z M55,79.6l8.2-15.5H52.7L41.1,79.6
	C41.1,79.6,55,79.6,55,79.6z M82.2,111.5l25.1-26.8h-13L82.2,111.5z M60.8,79.6h27.5l-8.2-15.5h-11L60.8,79.6z M94.2,79.6h13.9
	L96.5,64.1H85.9L94.2,79.6z M99.8,60l15.5,20.6c0.4,0.5,0.6,1,0.5,1.7c0,0.6-0.3,1.2-0.7,1.6l-38.7,41.2c-0.5,0.5-1.1,0.8-1.9,0.8
	c-0.8,0-1.4-0.3-1.9-0.8L34,83.9c-0.4-0.5-0.7-1-0.7-1.6c0-0.6,0.1-1.2,0.5-1.7L49.3,60c0.5-0.7,1.2-1,2.1-1h46.4
	C98.7,59,99.4,59.3,99.8,60z"/>
<g class="st2">
	<path class="st3" d="M39.9,44.1c0.4-0.2,0.9-0.5,1.3-0.7C40.7,43.6,40.3,43.8,39.9,44.1z"/>
	<g class="st3">
		<g>
			<path class="st4" d="M57.9,153.3c12.1-0.1,34.8-2.6,50.6-18.7c9.8-10,15.9-23.2,17.2-37.3c0.2-2.4,0.3-4.9,0.2-7.2l-3.5,0.9
				c0,0,0,0-0.1,0c-0.1,0-0.3,0.1-0.4,0.1c-0.2,0-0.4,0.1-0.6,0.1c-0.7,0-1.3-0.2-1.8-0.7c-0.9-0.8-1.1-2-0.6-3.1l9.4-20.2
				c0.4-0.8,1.2-1.5,2.2-1.7c0.3-0.1,0.5-0.1,0.8-0.1c0.5,0,1.2,0.1,1.8,0.6c0,0,0,0,0,0l8.2,6.3c-0.7-1.4-1.6-3.3-2.7-5.4
				c-0.7-0.2-1.3-0.6-1.7-1.3c-6-10.5-19.3-29.1-41-35.1c-5.1-1.4-10.2-2.1-15.4-2.2c-0.2,0-0.4,0-0.7,0c-14.2,0-25.2,5.1-31.4,8.8
				l2.5,2.6c0,0,0,0,0,0c0.4,0.4,0.6,0.8,0.8,1.3c0.2,0.8,0.1,1.6-0.4,2.3c-0.5,0.7-1.2,1.1-2,1.1l-22.1,1.6c-0.1,0-0.1,0-0.2,0
				c-0.1,0-0.1,0-0.2,0c-0.8-0.1-1.6-0.4-2.2-1.1c-0.6-0.7-1-1.6-0.9-2.4c0-0.1,0-0.1,0-0.2l1.6-11c-0.1,0.1-0.2,0.1-0.2,0.2
				c-0.9,1.2-2.7,3.7-4.8,7.2c0.2,0.7,0.1,1.4-0.2,2.1c-4.3,7.5-9.6,19.3-10.8,32.6c-0.6,7.1,0,14.1,1.8,20.6
				c6.1,22,21.8,32.9,30,37.3l0.9-3.5c0,0,0,0,0,0c0-0.1,0.1-0.3,0.1-0.4c0.2-0.8,0.9-1.5,1.8-1.8c0.3-0.1,0.5-0.1,0.8-0.1
				c0.9,0,1.7,0.4,2.2,1.1L60,145c0.7,1,0.5,2,0.5,2.4c0,0.1,0,0.2-0.1,0.4c-0.3,1-1,1.8-1.8,2.1l-8.9,3.7c0.4,0.1,0.9,0.3,1.3,0.4
				c1.4,0.1,3.1,0.2,4.9,0.2C56.5,153.6,57.2,153.3,57.9,153.3z"/>
			<path class="st4" d="M57.9,147c0-0.3,0-0.4,0-0.4L45,128.3c0,0.1-0.1,0.2-0.1,0.3l-1.8,6.7l-1-0.5c-7.7-3.7-26.4-15.1-33.3-40
				C7,88,6.3,80.8,7,73.3c1.2-13.7,6.6-25.7,11.1-33.6c-7,8.8-16.4,23.7-18,41.6c-0.4,4.5-0.3,9,0.3,13.3C4.7,126,19,136.5,38.6,148
				l0.6,0.4l-2.1,7.1c0,0.3,0,0.4,0,0.4l20.5-8.6C57.7,147.3,57.8,147.2,57.9,147z"/>
			<path class="st4" d="M149.3,81.6l-17.6-13.5c0,0-0.1-0.1-0.2-0.1c-0.1,0-0.1,0-0.2,0c-0.2,0.1-0.4,0.2-0.4,0.2l-9.4,20.2
				c0.1,0,0.2,0,0.3-0.1l6.7-1.8l0.1,1.1c0.2,3.2,0.2,6.5-0.1,9.8c-1.3,14.7-7.7,28.6-18,39c-16.2,16.4-38.8,19.4-52.5,19.5
				c4.1,0.6,9,1.1,14.5,1.1c13,0,28.7-2.8,42.1-13.1c21.3-16.5,25.4-31.8,26.7-46c0.4-4.7,0.5-9.6,0.5-13.7l0-0.7l7.2-1.7
				C149.2,81.8,149.3,81.6,149.3,81.6z"/>
			<path class="st4" d="M30.3,21.1c-0.2-0.2-0.3-0.2-0.4-0.2l-3.2,22c0,0.1,0,0.2,0.2,0.4c0.2,0.2,0.3,0.2,0.4,0.2l22.1-1.6
				c0-0.1-0.1-0.2-0.2-0.3l-4.8-4.9l0.9-0.6c5.5-3.6,18-10.3,34.6-10.3c0.2,0,0.5,0,0.7,0c5,0.1,10.4,0.7,16,2.3
				c22.2,6.1,35.9,24.4,42.6,36.3c-4.9-13.1-16-34.1-38.1-43.5c-11-4.7-20.3-6.6-28.5-6.6c-13.5,0-24.5,5.2-36.9,12l-0.6,0.3
				L30.3,21.1z"/>
		</g>
		<g>
			<g>
				<path class="st5" d="M27,97.9c-2.4,0-4.1-0.5-5.8-1.1l-2.4,7.3c1.4,0.7,4.7,1.4,8.3,1.4c10.4,0,17.6-6.4,17.6-15.3
					c0-4.3-2.2-7.9-6-9.6l0.1-0.1c4.4-1.5,8.7-5.8,8.7-11.6c0-4.5-2.7-9.8-11.5-9.8c-3.5,0-6.8,0.9-8.3,1.6l-0.1,7.2
					c1.3-0.6,3.2-1.2,5.1-1.2c3.3,0,5.1,1.7,5.1,4.3c0,4.7-5.2,6.4-8.6,6.4h-1L27,84.2h1.3c3.7,0,7.2,1.8,7.2,6.3
					C35.6,94.8,32.1,97.9,27,97.9z"/>
				<path class="st5" d="M63.5,105.5c9.6,0,16-9.6,16-19.8c0-4.3-2.1-10.2-8.6-10.3c-2.6,0-5.3,1.2-7.1,3.2h-0.3
					c2.7-6.4,7.3-10.5,13.2-11.7c0.9-0.2,1.7-0.3,2.6-0.3l1.3-7.5c-0.7,0-1.4,0-2.6,0.2c-5,0.6-10,2.7-14.3,6.4
					c-5.4,4.7-11.4,14.1-11.4,25.9C52.2,98.3,54.8,105.5,63.5,105.5z M61.3,87.5c0.1-0.4,0.3-0.9,0.4-1.4c1.1-2.5,3.3-4.3,5.2-4.3
					c2.4,0,3.4,2,3.4,4.5c0,4.7-1.6,12.8-6.2,12.8c-2.5,0-3.3-2.9-3.3-5.8C60.8,91.8,60.9,90.1,61.3,87.5z"/>
				<path class="st5" d="M94.6,105.5c13.5,0,18.7-19.5,18.7-32.7c0-5.2-1.3-13.7-10.7-13.7c-12,0-18.7,17.1-18.7,32.3
					C84,97.7,85.9,105.5,94.6,105.5z M101.8,66.5c1.8,0,2.6,2.1,2.6,5c0,5.1-2.9,26.6-8.6,26.6c-2.2,0-3-2.2-3-5.9
					C92.9,86.4,95.9,66.5,101.8,66.5z"/>
			</g>
		</g>
	</g>
</g>
<g>
	<g>
		<path d="M58.3,145.9c0.3-0.1,0.6-0.5,0.8-1c0-0.1,0.1-0.2,0.1-0.3c0-0.3,0-0.6-0.2-0.9l-12.7-18c-0.2-0.3-0.6-0.4-0.9-0.3
			s-0.6,0.5-0.8,1l-1.5,5.5c-12.9-6.3-26.8-19.1-32.3-38.8c-2-7.2-2.4-14.2-1.8-20.9c2.1-23.9,17.2-42.5,17.2-42.5S3.1,50.7,0.4,80
			c-0.4,4.3-0.3,8.7,0.3,13.3c4.4,31.7,19,42.1,38,53.2l-1.8,6.3c0,0.1-0.1,0.2-0.1,0.3c0,0.3,0,0.6,0.2,0.9
			c0.2,0.3,0.6,0.4,0.9,0.3L58.3,145.9z"/>
		<path d="M131.5,66.3c-0.3-0.2-0.8-0.3-1.2-0.2c-0.5,0.1-0.8,0.4-1,0.7l-9.3,20c0,0.1-0.1,0.2-0.1,0.3c0,0.2,0.1,0.5,0.3,0.6
			c0.3,0.2,0.8,0.3,1.2,0.2l5.5-1.5c0.2,3,0.2,6.2-0.1,9.5c-1.1,12.4-6.1,26.3-17.4,37.8C85.3,158.2,46.7,152,46.7,152
			s39,12.7,67.8-9.5c19.9-15.4,25.2-29.7,26.6-45.9c0.4-4.4,0.5-8.9,0.5-13.6l6.4-1.6c0.5-0.1,0.8-0.4,1-0.7c0-0.1,0.1-0.2,0.1-0.3
			c0-0.2-0.1-0.5-0.3-0.6L131.5,66.3z"/>
		<path d="M143.2,73.5c0,0-8.4-40.2-42-54C71.6,7.4,55.2,14.7,36,25.6l-4.5-4.8c-0.3-0.3-0.7-0.5-1.1-0.5c-0.4,0-0.6,0.3-0.7,0.6
			l-3,21.8c0,0,0,0,0,0c0,0.4,0.1,0.8,0.4,1.1c0.3,0.3,0.7,0.5,1.1,0.5l21.9-1.9c0.4,0,0.6-0.3,0.7-0.6c0,0,0,0,0,0
			c0-0.4-0.1-0.8-0.4-1.1l-4-4c11.9-8,30-13.5,49.8-8.4C129.4,37,143.2,73.5,143.2,73.5z"/>
	</g>
	<g>
		<path class="st6" d="M121.7,64.5c2.6,0,4.7-2.3,4.7-5.1c0-2.8-2.1-5.1-4.7-5.1c-2.6,0-4.7,2.3-4.7,5.1
			C117,62.2,119.1,64.5,121.7,64.5z"/>
		<path d="M26.2,98.3c-2.4,0-4.2-0.5-5.9-1.1l-2.4,7.5c1.4,0.7,4.8,1.4,8.5,1.4c10.6,0,18-6.5,18-15.6c0-4.3-2.2-8.1-6.1-9.7
			l0.1-0.1c4.5-1.6,8.8-5.9,8.8-11.9c0-4.6-2.8-10-11.8-10c-3.6,0-6.9,0.9-8.5,1.6l-0.1,7.4c1.3-0.6,3.3-1.2,5.2-1.2
			c3.4,0,5.2,1.7,5.2,4.3c0,4.8-5.3,6.5-8.8,6.5h-1l-1.3,7h1.3c3.8,0,7.3,1.8,7.3,6.4C34.9,95.2,31.3,98.3,26.2,98.3z"/>
		<path d="M63.4,106.1c9.7,0,16.3-9.8,16.3-20.2c0-4.4-2.1-10.5-8.8-10.5c-2.7,0-5.4,1.2-7.3,3.3h-0.3c2.8-6.5,7.4-10.7,13.4-11.9
			c0.9-0.2,1.7-0.4,2.6-0.4l1.3-7.6c-0.8,0-1.4,0-2.7,0.2c-5.1,0.6-10.2,2.8-14.5,6.5C58,70.2,51.8,79.8,51.8,91.8
			C51.8,98.7,54.5,106.1,63.4,106.1z M61.1,87.7c0.2-0.4,0.3-0.9,0.5-1.4c1.1-2.6,3.4-4.4,5.3-4.4c2.5,0,3.4,2.1,3.4,4.6
			c0,4.8-1.6,13.1-6.4,13.1c-2.6,0-3.4-2.9-3.4-5.9C60.6,92.1,60.7,90.3,61.1,87.7z"/>
		<path d="M95.1,106.1c13.7,0,19.1-19.9,19.1-33.3c0-5.3-1.3-14-10.9-14c-12.2,0-19,17.4-19,33C84.3,98.1,86.2,106.1,95.1,106.1z
			 M102.4,66.2c1.9,0,2.7,2.1,2.7,5.1c0,5.2-2.9,27.2-8.8,27.2c-2.3,0-3.1-2.2-3.1-6C93.3,86.6,96.4,66.2,102.4,66.2z"/>
	</g>
</g>
</svg>
